Coordinates
version=1
nRows=18
nColumns=22
inDegrees=yes

Units are S.I. units (second, meters, Newtons, ...)
If the header above contains a line with 'inDegrees', this indicates whether rotational values are in degrees (yes) or radians (no).

endheader
time	pelvis_tilt	pelvis_list	pelvis_rotation	pelvis_tx	pelvis_ty	pelvis_tz	hip_flexion_r	hip_adduction_r	hip_rotation_r	knee_angle_r	ankle_angle_r	subtalar_angle_r	hip_flexion_l	hip_adduction_l	hip_rotation_l	knee_angle_l	ankle_angle_l	subtalar_angle_l	lumbar_extension	lumbar_bending	lumbar_rotation
      0.01000000	      0.27941509	     -0.58213728	    -13.10348765	     -1.05405204	      0.90577015	     -0.42340236	     -5.03377747	      0.87752835	      2.24231721	     -0.95097662	     14.89174137	     -0.54287176	     -0.30574430	     -3.78657930	    -14.40287400	    -14.56088445	     16.91994195	      0.90202475	     -3.11927428	     -2.01325812	      4.54516583
      0.02000000	      0.28113310	     -0.58486569	    -13.10165228	     -1.05403691	      0.90578420	     -0.42352451	     -5.03636626	      0.87115252	      2.24146120	     -0.94896940	     14.88840962	     -0.54839980	     -0.30623376	     -3.78072823	    -14.41027001	    -14.56262125	     16.91461312	      0.90120946	     -3.12700189	     -2.00446332	      4.54110957
      0.03000000	      0.33445842	     -0.59898881	    -13.10929527	     -1.05398772	      0.90588266	     -0.42361489	     -5.12618230	      0.86357425	      2.26752251	     -0.89432914	     14.84579663	     -0.64834700	     -0.37330751	     -3.77815588	    -14.46304335	    -14.55762404	     16.86599952	      0.89188000	     -3.19326975	     -2.00377802	      4.53280616
      0.04000000	      0.33184505	     -0.60260993	    -13.11107205	     -1.05398156	      0.90589514	     -0.42376051	     -5.12286590	      0.85787484	      2.26990465	     -0.89254269	     14.84538475	     -0.64990538	     -0.37237717	     -3.77123863	    -14.46415643	    -14.55200241	     16.86847938	      0.89224598	     -3.20071181	     -1.99687824	      4.53009151
      0.05000000	      0.32946001	     -0.60632336	    -13.11625170	     -1.05397476	      0.90590924	     -0.42391784	     -5.11966811	      0.85091518	      2.27320610	     -0.89015439	     14.84330873	     -0.65170164	     -0.37250725	     -3.76297007	    -14.46615873	    -14.54617136	     16.87103080	      0.89251635	     -3.20880586	     -1.98888382	      4.52552425
      0.06000000	      0.32688815	     -0.61013334	    -13.12342452	     -1.05397398	      0.90592416	     -0.42408081	     -5.11588246	      0.84375639	      2.27709503	     -0.88718817	     14.83945239	     -0.65367026	     -0.37267080	     -3.75430072	    -14.46919285	    -14.53953086	     16.87341894	      0.89263102	     -3.21883474	     -1.98130027	      4.52030471
      0.07000000	      0.33728011	     -0.61098753	    -13.14653263	     -1.05397849	      0.90596503	     -0.42421304	     -5.12385401	      0.82913035	      2.32451537	     -0.88525887	     14.79851812	     -0.67352529	     -0.40405894	     -3.73653465	    -14.49187820	    -14.50172007	     16.88467072	      0.89000696	     -3.24326523	     -1.98418853	      4.50959695
      0.08000000	      0.33436734	     -0.61521552	    -13.15644527	     -1.05397589	      0.90597803	     -0.42438842	     -5.12068805	      0.82185583	      2.32286804	     -0.87958743	     14.79701664	     -0.67501431	     -0.40190475	     -3.72752121	    -14.49276160	    -14.50138246	     16.88404125	      0.88974926	     -3.25327310	     -1.97263373	      4.51043160
      0.09000000	      0.33123423	     -0.61987094	    -13.16658352	     -1.05398718	      0.90599067	     -0.42455895	     -5.11566212	      0.81528015	      2.32279251	     -0.87579104	     14.79298320	     -0.67694166	     -0.39933568	     -3.71993256	    -14.49464550	    -14.49908588	     16.88328975	      0.88920317	     -3.26617443	     -1.96397267	      4.50962111
      0.10000000	      0.33978751	     -0.62618658	    -13.19071262	     -1.05402546	      0.90602967	     -0.42470748	     -5.10753357	      0.80792290	      2.35160990	     -0.89753076	     14.74623682	     -0.69693412	     -0.41453694	     -3.71062137	    -14.51254899	    -14.48937159	     16.87342476	      0.88013793	     -3.29695610	     -1.95705079	      4.50900752
      0.11000000	      0.33642407	     -0.63072305	    -13.20067658	     -1.05403673	      0.90604021	     -0.42487969	     -5.10169433	      0.80202426	      2.35080340	     -0.89327664	     14.74359860	     -0.69927660	     -0.41198751	     -3.70264444	    -14.51394557	    -14.48810442	     16.87243654	      0.87909444	     -3.30863081	     -1.94665500	      4.50849355
      0.12000000	      0.34065881	     -0.63720579	    -13.21945618	     -1.05406625	      0.90606584	     -0.42504401	     -5.08811411	      0.79607843	      2.36831185	     -0.91817336	     14.71519216	     -0.71499342	     -0.41739442	     -3.69429085	    -14.51872223	    -14.48931266	     16.86477114	      0.87034829	     -3.33050581	     -1.93391855	      4.50012848
      0.13000000	      0.33692156	     -0.64206626	    -13.22632210	     -1.05409422	      0.90607510	     -0.42520692	     -5.07963458	      0.79255759	      2.36841339	     -0.91660546	     14.71150894	     -0.71799547	     -0.41306613	     -3.68859084	    -14.52009908	    -14.48633344	     16.86366015	      0.86868123	     -3.34506365	     -1.92776505	      4.49863406
      0.14000000	      0.34199714	     -0.64995934	    -13.24217095	     -1.05414794	      0.90610478	     -0.42536437	     -5.05470002	      0.79019324	      2.38844168	     -0.96236249	     14.67641535	     -0.74183502	     -0.41623984	     -3.68315463	    -14.52017806	    -14.49053522	     16.85374341	      0.85426861	     -3.37175385	     -1.91753885	      4.48339921
      0.15000000	      0.33934706	     -0.65471518	    -13.24948659	     -1.05416557	      0.90611273	     -0.42552605	     -5.04683180	      0.78685804	      2.38780965	     -0.96287916	     14.67335961	     -0.74559336	     -0.41297466	     -3.67645644	    -14.52052812	    -14.48966649	     16.85266632	      0.85209931	     -3.38230367	     -1.91018247	      4.48138629
      0.16000000	      0.33163975	     -0.66799798	    -13.26924818	     -1.05422313	      0.90612955	     -0.42566948	     -4.99323235	      0.79566470	      2.39114839	     -1.03798755	     14.64275975	     -0.83775827	     -0.40574574	     -3.68005527	    -14.52228024	    -14.49064747	     16.83213460	      0.79347475	     -3.39239770	     -1.89276526	      4.48592638
      0.17000000	      0.33389860	     -0.66837005	    -13.27717988	     -1.05425108	      0.90614215	     -0.42582129	     -4.97833825	      0.78701476	      2.40775528	     -1.05948836	     14.63768948	     -0.85264717	     -0.40226905	     -3.66863542	    -14.51990996	    -14.49762388	     16.83714414	      0.78549590	     -3.40691623	     -1.89402176	      4.45742091
      0.18000000	      0.33468701	     -0.67145056	    -13.28744806	     -1.05428260	      0.90615547	     -0.42596253	     -4.95533278	      0.78262539	      2.41471642	     -1.09364699	     14.62788972	     -0.87374906	     -0.40129532	     -3.66017183	    -14.51681492	    -14.49777309	     16.83786118	      0.77421097	     -3.42022228	     -1.89422134	      4.43911977
